<svg xmlns="http://www.w3.org/2000/svg" width="360" height="360" viewBox="0 0 360 360"><path fill="#f1f1f1" d="M86 204.5c-.4-1.4-.7-2.7-1-4.1a18.5 18.5 0 0 1-.4-2.3c.1.8.3 1.5.4 2.3s.6 2.7 1 4.1zm3 9.6a3.6 3.6 0 0 1-.4-.9c-.9-2.9-1.8-5.8-2.6-8.7.8 2.9 1.7 5.8 2.6 8.7a3.6 3.6 0 0 0 .4.9zm8.3-71.3c-.6 1.4-1.2 2.7-1.7 4.1.5-1.4 1.1-2.7 1.7-4.1zm-.2 87.5l-2.2-3.6-1.7-3.2 1.7 3.2zm8.9-102.7c-1.7 2.4-3.2 4.9-4.7 7.4a83.5 83.5 0 0 1 4.7-7.4zm26.6 136.9l-1.2-.7-6.2-3.9 6.2 3.9zm16.4 7.2l-4.9-1.7-2.5-1.1 2.5 1.1zm17.2 4.2l-9.5-1.7-1.4-.4 1.4.3zm10.9-188.4a5.4 5.4 0 0 0-.7-1.3 5.4 5.4 0 0 1 .7 1.3zm25.2-1.9l-2-.4-2.4-.4 2.3.3zm11.5 3.5l-.8-.3-4.3-1.4 4.3 1.3zm1.7 174.7l-1.9.8 1.9-.8zm4.3-172l-3.6-1.7-1.6-.7 1.6.7zm6.1-21.6l-5.4-2.1zm5.6 209.6a29.5 29.5 0 0 0-2.5-2.5l-5.4-5.5 5.4 5.5zm1.6 1.5l-1.6-1.5zM250 113.4l-2.6-2.5zm17.1 24.8c-.6-1.1-1.1-2.3-1.7-3.5l-.6-1.1.6 1.1c.6 1.2 1.1 2.4 1.7 3.5zm6.1 83.9l-2.4-2.4zm3.1-40.6l-2.9 1.7zm9-56.5l-1.3-2.5a15.9 15.9 0 0 0-1.3-2.2 15.9 15.9 0 0 1 1.3 2.2zm39 173.3c.6-1.4.5-3.4.9-5s-1.1-1.7-1.7-2.4 1.1 1.6 1.7 2.4-.3 3.6-.9 5zm-115.6-180l10.8 6.3a72.5 72.5 0 0 0-10.8-6.3zm-77.2 109.8l-7.8-9.5a64.6 64.6 0 0 0 7.8 9.5z"/><path fill="#f1f1f1" d="M95.6 146.9c.5-1.4 1.1-2.7 1.7-4.1-.6 1.4-1.2 2.7-1.7 4.1zm10.4-19.3c-1.7 2.4-3.2 4.9-4.7 7.4a83.5 83.5 0 0 1 4.7-7.4zm109.5 136.2l-1.9.8 1.9-.8z"/><path fill="#f1f1f1" d="M202 301.6c-.1 1.3-.1 2.6-.1 3.9-.8 7.8-1.6 15.5-2.3 23.3-.2 2.3-1 3.7-3.8 3.7-7.1 0-14.3.4-21.5.6l-3.9-.2-7.6-.5c-2.1-.1-2.6-1.2-2.3-3s-.3-2.5-.4-3.8c-.3-3.3-.6-6.7-1-10.1 0-1.3-.1-2.6-.2-3.9-.3-3.6-.6-7.2-.8-10.8l-.6-3.8c.1-.2 0-.3.1-.5a117.6 117.6 0 0 1-43.8-17.9l-.3.2-25.1 20.3c-1.3 1.1-2.7 2.8-4.4.4l-3-2.5-5.3-4.6-2.4-2.3-5.3-5.4-2.2-2.4-5.7-6.8c-.1-1-.7-2.3-.3-3a64.4 64.4 0 0 1 4.8-5.6l16.8-20.5a118.7 118.7 0 0 1-18.1-43.6l-3.9-1.1-3.7-.4-10-.8-3.9-.6-10-.9-4.5-2.2c-.2-3.6-.5-7.2-.7-10.7v-3.9c.2-6.5.4-13.1.8-19.6A3.9 3.9 0 0 1 30 160c6.8-.8 13.5-1.3 20.3-1.8l4.6-.5c2.5-.3 5.1-.9 7.6-.7h.7a118.7 118.7 0 0 1 18.4-44l-5.2-6.2-1.6-2.1c-1.8-2.1-3.6-4.2-5.3-6.4l-1.7-2.1-5.2-6.4-1.6-2.1c-2.1-1.3-2-2.9-.4-4.5l23.6-23.4c1.6-1.5 2.9-1.2 4.1.5l2.1 1.7 6.3 5.3 2.1 1.7 5.4 4.5 2.4 2.1c2 1.7 4 3.4 6.1 5a2.3 2.3 0 0 0 .7.7 119 119 0 0 1 44-18.2c.1-2.9.6-5.8.9-8.7 0-1.3.1-2.6.1-3.9.7-7.5 1.4-15 2.1-23.2l21.5-.6h3.9l10.7.8c3.2-.4 2.4 2 2.6 3.6l1.2 10.1c.1 1.3.2 2.5.4 3.8.3 3.3.7 6.7 1 10.1l.3 3.8c.3 1.5.5 2.9.8 4.3a125.1 125.1 0 0 1 23 7l.3.2a126.7 126.7 0 0 1 20.2 10.9l21.1-17.2a45.4 45.4 0 0 1 4.8-4.1c.7-.5 2 .1 3 .3l6.8 5.6 2.4 2.2 5.4 5.4 2.3 2.4 4.7 5.3 2.4 3c2.6 1.8.6 3.1-.4 4.4-6.8 8.4-13.6 16.6-20.3 25 1.9 2.9 3.7 5.8 5.4 8.9l1.3 2.5.9 1.7 1.3 2.4 1.5 3.6c.6 1.4 1.1 2.8 1.7 4.1l.3 1a30.5 30.5 0 0 1 1.3 3.2l.7 2.4q1.3 4 2.4 8.4l.3 1.1v.5a.4.4 0 0 1 .1.3c.2 1.1.5 2.1.7 3.1h1.1l3.8.5 10.8.9 3.9.2 10.1 1 3.7.5c.8.8 2 1.5 2.1 2.4a75.6 75.6 0 0 1 .7 8.2c0 1.3.1 2.6.2 3.9-.2 6.9-.6 13.7-.5 20.6 0 3-1.4 3.7-3.9 4l-22.4 2.1-3.9.2-3 .5-2.7.6c-.7 3.6-1.5 7-2.5 10.4l2.9 1.5 6-.4h3.9l13.8-1.5 3.2-.2 13.1-1.7 6.9-6.7c.5-4.4 1.1-8.8 1.6-13.1v-15.4c0-1.1-.1-2.1-.1-3.1-.3-3.9-.5-7.7-.8-11.6l-.6-3.1-3.6-7.5-2.3-1.5-9.1-1.4-2.9-.4-10.8-.8-3.1-.5c-2-.1-4.1-.3-6.1-.2s-4-1.1-3.9-3.8l-1.2-2.9c-.9-2.7-1.8-5.3-2.8-7.9-.2-.6-.5-1.3-.8-2-1.3-2.6-2.5-5.2-3.8-7.9s-2.3-4.4.5-6.4c5.2-6.5 10.4-13.2 15.8-19.6 2.8-3.3 4.4-6.7 4-11.1-.2-.5-.3-1.1-.5-1.6l-5.1-6.9-1.6-2c-1.7-2.1-3.6-4.1-5.4-6.1l-2.3-2.5-5.4-5.3-2.8-2.6c-2-1.7-4-3.4-5.9-5.2l-2.1-1.6-6.7-4-3.1-.2c-2.1 1.1-4.6 1.7-6.4 3.2-7 5.5-13.9 11.1-20.6 17-2.4 2.2-4.3 2.8-6.7.3l-1.7-.9-7.7-3.4-2.4-1.1-9.2-3.3-3.7-1.6c-.3-3.6-.6-7.1-.8-10.7a29.3 29.3 0 0 1-.5-2.9c-.4-3.6-.7-7.3-1-11-.2-.9-.3-1.9-.5-2.9l-2.1-8.4-2.3-2.5L199 15l-3.2-.3-10.7-.6h-3.9l-12.3.2-3.1.2-7.5 1.1c-6.8 1.1-9.6 4.2-10.1 11.2-.2 2-.6 4-.9 6s-.1 2.6-.1 3.9c-.5 4.4-1 8.7-1.4 13.1.2 7.3.2 7.3-9.3 9.2l-18.2 8.4a5.4 5.4 0 0 1-1.8 0l-2.3-2.1-6.3-5.3-3.1-2.5-5.3-4.5-3.1-2.5-5.3-4.1-3.1-1.2c-3.2 1.2-6.8 1.7-9.4 3.6-11.1 8.1-20.7 18-29.3 28.7-2.4 3-3.8 6.1-3.5 9.9l1.3 3.1 4 5.3 2.5 3.1 5.5 6.9 1.3 1.6 5.6 6.9 1.4 1.6c0 .6.4 1.4.1 1.9-2.9 6.4-5.8 12.6-8.8 18.9a37.6 37.6 0 0 1-1.7 6.6c-1.5 3.6-5 1.6-7.5 2.1l-13.1 1.2-3.1.2a34.3 34.3 0 0 0-5.6.8c-3.3.9-6.4 2.1-9.6 3.2h.1c-3.5 4.2-2.7 9.5-3.7 14.3-.1 1.3-.3 2.6-.4 3.9l-.2 12.3v3.1c.3 3.9.5 7.7.7 11.5.1 1.1.2 2.1.2 3.1l2.4 7.6 2.3 2.4 9.2 2.3 3.1.3 10.8 1.2 3.1.3a81.2 81.2 0 0 1 8.5.7c.9.1 1.5 1.4 2.3 2.2l1.1 2.9c1 2.9 2 5.7 2.9 8.6l1.2 2.4c1.1 2.5 2.2 5.1 3.4 7.6l.9 1.8c2.2 2.3 2 4.2-.2 6.7-5.9 6.6-11.4 13.4-16.9 20.3-1.5 1.9-2.3 4.4-3.4 6.7s.1 2.1.1 3.1 2.7 4.5 4 6.7l1.7 2 5.1 5.9 2.7 2.9 5.2 5.3 2.5 2.4 6.1 5.5 2.1 1.6 6.8 5.1 1.6.5c4.5.4 8.1-1.4 11.5-4.2 6-5.2 12.3-10 18.5-14.9 2-2.4 4.2-4.1 7.2-1.2l7.8 3.8 2 .8 7.9 2.8 2.9 1.2c3.4-.1 5.1 1.5 4.7 5-.1 1.1 0 2.3 0 3.4l.6 3.9c.2 3.6.5 7.2.8 10.8l.3 2.9c.5 3.4 1.1 6.7 1.6 10.1l1.5 2.2 6.6 3.4 3.2.7 11.5.8h18.5l13.9-1.7 6.6-6.8 1.8-13.8c.1-1.3.1-2.6.2-3.9l1.5-13c0-1.4.1-2.7.2-4l.3-5.2-1.9-3.1c-3.2.9-6.5 1.7-9.8 2.4a43.3 43.3 0 0 0-1.3 5.2z"/><path fill="#f1f1f1" d="M295.7 152.9l-.3-1.1.3 1.6zm-3.4-11.9a30.5 30.5 0 0 0-1.3-3.2l-.3-1c.8 2.2 1.6 4.4 2.3 6.6zm-4.8-11.9l-1.3-2.4-.9-1.7c1.3 2.5 2.6 5.1 3.7 7.7zm9 73.5c-.7 3.4-1.5 6.9-2.5 10.3l-1.6-2.3c-.4-4.8.5-6.9 4.1-8zM213.1 294c-3.2.9-6.5 1.7-9.8 2.4 1.2-4 2.9-4.2 8-4l1.3.8a3.5 3.5 0 0 1 .5.8zm82.3-142.2q-1-4.4-2.4-8.4l1.8 6.3zM336 286.3l-2.1-3.3-4.4-4.6a4.6 4.6 0 0 1-.7-.7l-2.4-2.5-5.5-5.4-2.5-2.5-5.5-5.5-2.4-2.4-5.5-5.5-2.5-2.5-5.4-5.5-2.5-2.4-3.9-3.9-5.3-5.2-4.2-4.3-2.5-2.5-5.5-5.5-2.4-2.4-3.9-3.9-2.4-2.3-15.1-15.2-2.4-2.5 1.5-13.5c0-1.4-.1-2.7-.1-4.1-.4-3.6-.7-7.3-1.1-11-.3-1.1-.5-2.1-.8-3.2-.9-2.9-1.7-5.8-2.6-8.7l-1.5-3.2-4.1-7.9-.8-1.3-5.6-7.4-2.3-2.4-5.6-5.5-2.2-1.7-2.3-1.3-10.8-6.3a68.2 68.2 0 0 0-96.8 61.9 67.6 67.6 0 0 0 11.8 38.4l7.8 9.5a68.3 68.3 0 0 0 48.6 20.3c2.1 0 4.3-.1 6.4-.3l4.5-.6 3.8-.5 4.9 1c5.3 5.3 10.6 10.5 15.8 15.8l2.5 2.5 3.1 3.1 2.4 2.4 5.5 5.5 2.5 2.5 4.7 4.7c1.5 1.6 3.1 3.1 4.7 4.7l4 4 7.9 7.9c.9.8 1.7 1.7 2.5 2.5l5.5 5.5 2.4 2.4 5.5 5.5 2.5 2.4 5.4 5.5 2.5 2.5 1 .9 4.4 4.2 3.2 2.1 9.4 1.8h3.3a28.1 28.1 0 0 0 13.1-8.3q7.7-8.2 15.9-15.9a27.9 27.9 0 0 0 8.3-13.2v-.6c0-.9.1-1.7.1-2.6zm-149.6-50l-19.7-1.9-3.7-1.2-8.7-3.3-2.5-1.3-7.2-4.8-3.1-2.6-5.7-6.3-1.4-1.7-4.6-7.9c-.6-1.1-1.1-2.1-1.6-3.2l-2.5-7.9c-.2-1.1-.5-2.1-.7-3.2-.4-3.7-.7-7.4-1-11.1 0-1.3.1-2.6.1-4l3.3-15.8c.8-1.9 1.5-3.8 2.3-5.6a8 8 0 0 1 .8-1.6 47.8 47.8 0 0 1 22.2-22.2l1.6-.8 5.6-2.3 15.8-3.3h4.1l11 1 2.4.5 8.7 2.7 3.2 1.5 8 4.7 1.6 1.3 6.3 5.8 2.7 3.1c1.5 2.4 3.1 4.8 4.7 7.2l1.3 2.5 3.3 8.7 1.2 3.7c.6 5.6 1.3 11.1 1.9 16.6l-1 .2-9.5-9.2-2.4-2.4-7-4.2-2.5-1.1-8.5-3.7-2.5-1.3-9.1-4-2-.9-7.9-3.3-3.2-1.5-7.9-3.3-2.5-1.3-9.4-3.2c-7 4-12.9 9.1-16.3 16.6 1.1 2.9 2.1 5.7 3.1 8.6a30.1 30.1 0 0 1 1.6 3.1l3.6 8.1c.5.8 1 1.6 1.4 2.4l3.6 7.8.9 1.8c1.4 3.2 2.9 6.3 4.4 9.4l1.3 2.4 3.6 7.9c.4.8.9 1.6 1.3 2.5l4.3 6.9 2.4 2.4 10.7 10.7a5.1 5.1 0 0 0-.2 1.3zm137.9 62a2.4 2.4 0 0 1-.7 1.3c-7.3 7.7-14.8 15.3-22.6 22.6-1.4 1.3-4.2 1.1-6.3 1.6s-2.4-1.6-3.4-2.6l-.7-.6-43.1-43.1-19.9-19.9c-5.5-5.6-11.1-11.1-16.6-16.6l-25.6-25.7-1-1-2.4-3.2c-5.4-11.1-10.7-22.3-16.1-33.4-1.5-3.1-3-6.2-4.6-9.3a30.1 30.1 0 0 0-1.6-3.1c-1.1-2.2-.4-3.6 1.1-5.2s2.8-1.4 4.5-.6c4.3 2.1 8.6 4 12.9 5.9l34.2 15.2a17.6 17.6 0 0 1 3.4 2.5l26 26 16.8 16.7 20.1 20.1 43.1 43.2 1.1 1c.2.3.5.5.6.8s1.1 1.6 1.7 2.4-.4 3.6-.9 5z"/><path fill="#f1f1f1" d="M180.1 112a68.4 68.4 0 0 1 28.6 6.3l-3.6-2.1-2.4-1.2-9.5-2.6-3.2-.7-11.9-.7-4.8.4-13.4 2.6-6.4 2.3a75.5 75.5 0 0 0-37.3 37.4l-2.4 6.3c-.8 4.8-1.7 9.5-2.6 14.3-.2 1.3-.3 2.7-.4 4 .2 4 .5 7.9.7 11.9.2 1.1.5 2.1.7 3.2.9 3.1 1.8 6.3 2.6 9.5l1.2 2.4c1.3 2.6 2.5 5.2 3.7 7.8l1.4 2.4 2.6 3.1a67.4 67.4 0 0 1-11.8-38.4 68.2 68.2 0 0 1 68.2-68.2zm-48.6 116.1l1.4 1.7 2.4 2.3 7.4 5.6 1.3.8 7.9 4.1 3.2 1.5 8.7 2.6 3.2.8 11 1.1h4.1l4.4-.6c-2.1.2-4.3.3-6.4.3a68.3 68.3 0 0 1-48.6-20.2zm193.7 65.2c-.4 1.6-.4 3.6-.9 5a2.4 2.4 0 0 1-.7 1.3c-7.3 7.7-14.8 15.3-22.6 22.6-1.4 1.3-4.2 1.1-6.3 1.6s-2.4-1.6-3.4-2.6l-.7-.6-43.1-43.1-19.9-19.9c-5.5-5.6-11.1-11.1-16.6-16.6l-25.6-25.7-1-1-2.4-3.2 12.8-13 2.1 1.8 29.9 29.9 16 16 19.5 19.6 37.3 37.2c1.7 1.7 3.4 4 5.9 1.5s.2-4.3-1.5-5.9q-18.6-18.7-37.3-37.3l-19.5-19.6-10.5-10.5-5.5-5.5-13.1-13.2-18.6-18.7 12.9-12.8a17.6 17.6 0 0 1 3.4 2.5l26 26 16.8 16.7 20.1 20.1 43.1 43.2 1.1 1c.2.3.5.5.6.8s1.1 1.6 1.7 2.4z"/><path fill="#f1f1f1" d="M178.2 165.4c-4.3-1.9-8.6-3.8-12.9-5.9-1.7-.8-3-1-4.5.6s-2.2 3-1.1 5.2a30.1 30.1 0 0 1 1.6 3.1c1.6 3.1 3.1 6.2 4.6 9.3zm4.8 108.2c-.6.9-1.1 1.9-1.7 2.9h-11.1l-4-.6-9.5-1.7-2.9-.8-9.7-3.4-2.5-1.1-7.1-3.3-3.1-1.8-6.2-3.9-3.4-2.4-5.6-4.6-3-2.7-5-5.2-3-3.4-4.2-5.4-1.7-2.4-4.4-7.1-1.7-3.2c-1.1-2.3-2.2-4.7-3.2-7.1s-1-2.1-1.4-3.2c-.9-2.9-1.8-5.8-2.6-8.7-.4-1.4-.7-2.7-1-4.1l-1.5-9.4-.6-4c0-1.9.1-3.9 0-5.8s.7-4 3.1-4.6l3.1 1.8.2 2.6c0 .4.1.9.1 1.3.2 3.4.5 6.8.8 10.3.2 1.3.5 2.6.7 4l2.4 10.3c.5 1.1.9 2.2 1.4 3.4l3 7.8c.6 1.1 1.2 2.2 1.7 3.3s2.7 4.6 4 7l1.5 2.3 12.8 15.1 2.5 2.3 6.2 4.9 3.3 2.3 7.1 4.1 1.9.9 8.3 3.8 3.4 1.3 10.2 2.7 3.2.7 10.3 1.3h4a6.7 6.7 0 0 1 3.3.8 3.3 3.3 0 0 1 1.6 2.7zm93.3-103.2v11.1l-2.9 1.7a3.8 3.8 0 0 1-2.6-1.6 6.7 6.7 0 0 1-.7-3.3c-.1-1.3-.1-2.6-.2-4-.4-3.4-.9-6.9-1.3-10.3-.2-1.1-.5-2.1-.7-3.2-.9-3.4-1.8-6.8-2.6-10.3l-1.4-3.3-3.8-8.3-.9-1.9c-1.3-2.4-2.7-4.7-4.1-7.1l-2.3-3.3-4.9-6.2-2.3-2.5-5.6-5.5-2.1-1.7-16.7-11.1-3.3-1.7-7.8-3.1-3.4-1.3-10.3-2.4-4-.8-10.3-.7-1.8-.2-2.1-.2-1.8-3c.6-2.4 2.2-3.3 4.6-3.2h5.8l4 .7 9.4 1.5 4.1.9 8.7 2.7 3.2 1.3 7.2 3.3 3.1 1.7 7.2 4.4 2.4 1.7 5.3 4.2c1.2.9 2.3 1.9 3.4 2.9l5.2 5.1 2.7 3 4.6 5.6 2.4 3.4 3.9 6.2 1.8 3.1 3.3 7.1c.4.8.7 1.6 1.1 2.5 1 2.8 1.9 5.7 2.9 8.6.4 1.3.8 2.7 1.3 4l1.8 9.5c.1 1.3.3 2.7.5 4zm-76.8 23l18.6 18.7-18.6-18.7zM64.3 151.9c-.4 1.7-.7 3.4-1.1 5.1.4-1.7.7-3.4 1.1-5.1zm1.1 59.7a62.7 62.7 0 0 1-2.1-8.8c.6 3 1.3 5.9 2.1 8.8zm4.9-77.7a35.2 35.2 0 0 0-1.8 4.5 30.2 30.2 0 0 1 1.8-4.5z"/><path fill="#f1f1f1" d="M82.9 187c0-1.9.1-3.9 0-5.8a2.8 2.8 0 0 1 0-1.3 2.8 2.8 0 0 0 0 1.3c.1 1.9 0 3.9 0 5.8zm6.4-6a24.6 24.6 0 0 1-.2-2.6 24.6 24.6 0 0 0 .2 2.6zm1.1 36.3a3.6 3.6 0 0 1-.4-.9l-.4-.8.4.8a3.6 3.6 0 0 0 .4.9zm15.6-89.7l-1.2 1.8zm25.5-56.4l-5.4 2.6zm23.2 202.4l-.9-.2zm2.7-210.5a125.8 125.8 0 0 0-25.9 8.1 120 120 0 0 1 25.9-8.1zm.2 233.4a117.6 117.6 0 0 1-22.8-6.8 117.3 117.3 0 0 0 22.8 6.8zM186.8 83zm16.3 213.4l-5.5 1zm11.6-230.2a119.9 119.9 0 0 0-11.8-3 119.9 119.9 0 0 1 11.8 3zm6.4 203.2l-3.1-3.1zm15.1 15.1l-2.4-2.4zm10.2-203.2A139 139 0 0 0 234 74a139 139 0 0 1 12.4 7.3zm8.6 37.9l-2.3-2.8-1.3-1.5 1.3 1.5zm41.5 83.3a87.6 87.6 0 0 1-2.5 10.4l-1.6-2.3c-.4-4.8.5-6.9 4.1-8.1zm0-45.7l-.3-1.5zm-231.8-6.5l-1.5 6.7zm.7 61.3a62.7 62.7 0 0 1-2.1-8.8c.6 3 1.3 5.9 2.1 8.8zm6.4 17.8a118.6 118.6 0 0 1-5-12.9 118.6 118.6 0 0 0 5 12.9zm-4.1-88.8c1-3 2.2-6 3.5-8.9-1.3 2.9-2.5 5.9-3.5 8.9zm3.5-8.9c1-2.4 2.2-4.7 3.3-7-1.1 2.3-2.3 4.6-3.3 7z"/><path fill="#f1f1f1" d="M82.9 187c0-1.9.1-3.9 0-5.8a2.8 2.8 0 0 1 0-1.3 2.8 2.8 0 0 0 0 1.3c.1 1.9 0 3.9 0 5.8zm6.4-6a24.6 24.6 0 0 1-.2-2.6 24.6 24.6 0 0 0 .2 2.6zm1.1 36.3a3.6 3.6 0 0 1-.4-.9l-.4-.8.4.8a3.6 3.6 0 0 0 .4.9zm35.7-143.5c-2.6 1.3-5.2 2.8-7.7 4.3 2.5-1.5 5.1-3 7.7-4.3zm5.4-2.6l-5.4 2.6zm23.6 202.5l-1.3-.3zm2.3-210.6a125.8 125.8 0 0 0-25.9 8.1 120 120 0 0 1 25.9-8.1zm.2 233.4a117.4 117.4 0 0 1-25.8-8.1 117.2 117.2 0 0 0 25.8 8.1zM186.8 83zm27.9-16.8a119.9 119.9 0 0 0-11.8-3 119.9 119.9 0 0 1 11.8 3zm-1.6 227.7c-3.2 1-6.5 1.8-9.8 2.5 1.2-3.9 2.9-4.2 8-3.9l1.4.8a4.3 4.3 0 0 0 .4.6zm8-24.5l-3.1-3.1zm15.1 15.1l-2.4-2.4zm10.2-203.2A139 139 0 0 0 234 74a139 139 0 0 1 12.4 7.3zm8.6 37.9l-2.3-2.8-1.3-1.5 1.3 1.5zm41.5 83.3a87.6 87.6 0 0 1-2.5 10.4l-1.6-2.3c-.4-4.8.5-6.9 4.1-8.1zm0-45.7l-.3-1.5z"/></svg>