<svg xmlns="http://www.w3.org/2000/svg" width="360" height="360" viewBox="0 0 360 360"><path fill="#f1f1f1" d="M266.2 294.6l4.2 30.7-89-48.8-88.9 48.6 16.8-103-72-74.2 100.2-16 43.9-93.7 44.1 94.6L325.7 148l-20.8 22.2a65.7 65.7 0 0 1 12.9 5.2l34.3-36.5L234.4 121l-53-113.5-52.7 112.6L10.6 139l84.8 87.4-20 122.9 106-58 105.4 57.8-7.1-51.5a60.2 60.2 0 0 1-13.5-3z"/><path fill="#f1f1f1" d="M286.9 289a56.2 56.2 0 1 1 56.1-56.2 56.2 56.2 0 0 1-56.1 56.2zm0-99.3a43.2 43.2 0 1 0 43.1 43.1 43.2 43.2 0 0 0-43.1-43.1z"/><path fill="#f1f1f1" d="M304.9 203.6l11.9 8-32.7 48.7-30.1-20.5 7.6-11.1 18.6 11.4 24.7-36.5z"/></svg>