<svg id="Layer_1" data-name="Layer 1" xmlns="http://www.w3.org/2000/svg" viewBox="0 0 256 256"><title>logo-64</title><path d="M52.1,159.8c-.8,8.3-3.1,37.3-.1,51.2a3.4,3.4,0,0,0,1.5,2.2c8.3,5,56.6,33.7,75.4,37.2h1.5c6.3-1.7,54.1-14,77.3-25.4a3.4,3.4,0,0,0,1.7-2c2.1-5.9,10-30.4,4.8-45.8a6.8,6.8,0,0,1-.2-1.4,104.2,104.2,0,0,0,0-17,3.6,3.6,0,0,1,2.3-3.7c8.7-3,9.8-20-1.9-24.8l-42.7-18.6a4.7,4.7,0,0,1-2.1-3c-1.8-5.9-1.2-8.7-4.8-19.6a3.3,3.3,0,0,1,1.8-4.2c5.2-2.3,15.5-8.3,16.4-18.4s-.9-23.4-13.2-25.2a3.5,3.5,0,0,1-2.9-2.7c-1.4-7.7-8.9-30.4-46.4-33.2C80.3,2.3,66.6,29.1,64,35.2A3.3,3.3,0,0,1,62.3,37c-4.8,2.2-21.7,11.4-19.2,30.5C45.4,84.8,57,89.6,62,90.9a3.4,3.4,0,0,1,2.5,3c.7,6.8,2.3,11.8,1.5,24.5a3.4,3.4,0,0,1-2.2,3,24.3,24.3,0,0,0-16,18.7c-2,11.1.9,15.1,2.9,16.6A3.4,3.4,0,0,1,52.1,159.8Z"/><path d="M116.4,181.5c-4.8-6.8-7.1-17.1,4.4-26.6a1.4,1.4,0,0,0-.3-2.3l-50.3-26h-.1c-13.1-5.8-24.7,19-17.3,26.6s46.6,23.9,61.9,30.5A1.4,1.4,0,0,0,116.4,181.5Z" fill="#eadec4"/><path d="M130.2,187.2c-16.9-1.1-20.2-28.8-3.1-30.5,0,0,10.3.4,11.3,11.7s1.7,62.7,1.8,73a2,2,0,0,1-1.7,2l-4.7.9a2,2,0,0,1-2.3-1.9Z" fill="#eadec4"/><path d="M141.2,165.7s2.5,12.5,2.1,40.6c0,0,38.5-17.2,67.7-21.2,4.7-.8-2.8-11-2.8-11s-16.4-25.5-30.2-21.5S141.2,165.7,141.2,165.7Z" fill="#eadec4"/><path d="M198.9,158.2a112.7,112.7,0,0,1,9.3,9.2.3.3,0,0,0,.5-.3l-.8-17.5s2.5,3.8,7.7,1.6,5.7-19.6-5.9-17.2-11.4,10.8-11.2,23.3A1.3,1.3,0,0,0,198.9,158.2Z" fill="#eadec4"/><path d="M172.9,149.1a.6.6,0,0,0,.8.5c2.3-.9,9.5-3.3,14.5-.6a27,27,0,0,1,5.1,3.7.6.6,0,0,0,1-.5c-.9-5.1-1.7-16.8,6.9-20.8a.6.6,0,0,0,0-1L171.6,117a.5.5,0,0,0-.8.5Z" fill="#eadec4"/><path d="M73.3,123.8l59.5,28.3.3.2c.8.5,5,3.6,6.6,7.2a1.9,1.9,0,0,0,2.3.9l24.6-8.9a2,2,0,0,0,1.2-1.8c-.6-9.1-4-47.9-8.4-61.8a1.7,1.7,0,0,0-1.6-1.2c-3.1-.1-11.8-.9-16.8-4.8a1.9,1.9,0,0,0-1.8-.3,20.2,20.2,0,0,1-19.5-1.4,1.7,1.7,0,0,0-2.1.1c-2.7,2.2-10.6,7.1-21.7-1.6a1.8,1.8,0,0,0-2.6.5A27.7,27.7,0,0,1,72.1,92,1.2,1.2,0,0,0,71,93.4c.4,6,2.3,17.7,1.3,28.7A1.9,1.9,0,0,0,73.3,123.8Z" fill="#fff"/><path d="M91.4,73.9a.7.7,0,0,1,0,.9c-10.1,15.9-30.8,17.7-41,1.5s5.7-42.9,26.8-32.6a.7.7,0,0,0,.8-1.2,20.9,20.9,0,0,0-8.6-5.7.7.7,0,0,1-.4-1c9.6-19.1,29.8-28.5,51.4-27S157.2,19.7,161.6,39a.7.7,0,0,1-.8.9c-2.4-.4-8.5-.9-13.1,3.5a.7.7,0,0,0,.7,1.2c6.9-1.3,27.6-3.6,30,17.1C181.2,85.6,149,86.4,134.7,72a.8.8,0,0,0-1.3.7,15.3,15.3,0,0,0,2.3,5.3.8.8,0,0,1-.7,1.2c-4.4-.4-15.8-2.1-21.4-8.4a.7.7,0,0,0-1.3.6,12.4,12.4,0,0,0,1.8,5.1.7.7,0,0,1-.6,1.2C109,77.5,97.7,76.1,90,67.4a.7.7,0,0,0-1.3.6A11.8,11.8,0,0,0,91.4,73.9Z" fill="#fff"/><path d="M211.6,189.5a1.4,1.4,0,0,0-1.7-1.3c-29.9,6.9-59.1,19.4-65,22a1.8,1.8,0,0,0-1,1.6l.2,12.2c0,6.4-.1,12.9-.2,16a1.4,1.4,0,0,0,1.8,1.4c23.8-6.9,55.7-18.8,60.6-20.7a1.3,1.3,0,0,0,.9-1C208.2,216.4,212.3,201.4,211.6,189.5Z" fill="#eadec4"/><path d="M69.1,98.2s24-1.4,25.3-12.5c0,0,17.6,9.4,25-1.3,0,0,11.4,9.8,20.7,1.9,0,0,10.4,9.6,22.1,6.3l-2.8-6.9-19.2-6.1-4.3,1.9L117.8,79l-8.3.8-16-3.3-9.1,8.4L70.2,89.8Z" opacity="0.3"/><path d="M50.5,141.6a14.2,14.2,0,0,0,6.3,11.1c6.4,4.4,61.2,29.2,61.2,29.2v2.5l-3.5.8L53.4,156.7l-4.2-5.8Z" opacity="0.3"/><path d="M124.3,204.5,56.2,171.9c-.9,11.2-1.5,28.1,1.2,38.8.8,2.8,54.4,28.4,67,34.3a1.6,1.6,0,0,0,2.4-1.6C126.1,236.4,124.4,218.4,124.3,204.5Z" fill="#eadec4"/><path d="M124.8,192.4a1.7,1.7,0,0,0-1-1.8c-7.6-3.2-49.9-21.7-64.2-29.2a1.7,1.7,0,0,0-2.5,1.2c-.2,2.1-.5,5.3-.9,9.3l68.1,32.6A86.4,86.4,0,0,1,124.8,192.4Z" fill="#eadec4"/><path d="M124.8,192.4a1.7,1.7,0,0,0-1-1.8c-7.6-3.2-49.9-21.7-64.2-29.2a1.7,1.7,0,0,0-2.5,1.2c-.2,2.1-.5,5.3-.9,9.3l68.1,32.6A86.4,86.4,0,0,1,124.8,192.4Z" opacity="0.3"/><path d="M105.7,112.2c.3,7.7.7,21-.3,29.4l5.8,2.8s-1-18.5-4.2-32.4A.7.7,0,0,0,105.7,112.2Z" opacity="0.3"/><path d="M157.2,156.6s-2.7-23.7-5-37c-.1-.2-.3-.2-.3,0,.6,7.5,2.1,29.1,1.1,39.1Z" opacity="0.3"/><path d="M137.5,157.9c-.2-5.1-1.9-40.5-3.3-55.9,0-.6-.8-.5-.9,0-.1,14.7-.6,49.4-1.6,54.4-.1.2.1.4.3.5l4.9,1.5A.5.5,0,0,0,137.5,157.9Z" opacity="0.3"/><path d="M58.3,84.4s18.5,7.3,33.1-10.5l1,2.6L82.8,86.7,70.2,89.8,59.7,87.4Z" opacity="0.3"/><path d="M90,67.4s13.6,9.5,25.2,7.4l1.2,3.5-6.9,1.5L92.4,72.3Z" opacity="0.3"/><path d="M113.6,70.8s13.7,7.4,23.1,5.7l-2-4.5s26.3,15.1,44.7.5l-4.8,5-13.3,6-21.1-3.9-5.6,2.3-18.2-5.4Z" opacity="0.3"/><polygon points="168.9 113.1 207.4 130 199.4 137.2 195.9 156.7 186.2 149.2 170.8 152.2 168.9 113.1" opacity="0.3"/><path d="M142.6,162.2s4.4,12.9,2.8,45.3c0,0,20.3-12.4,67.1-21.7,0,0,1.3,5.1,1,8.3,0,0-52,11.9-70.9,22.5l-2.4-32.9-1.1-21.5Z" opacity="0.3"/></svg>