<svg id="Layer_1" data-name="Layer 1" xmlns="http://www.w3.org/2000/svg" viewBox="0 0 32 32"><title>logo-16</title><path d="M6.2,20.1a45.3,45.3,0,0,0,0,6.4l.2.3c1.1.6,7.1,4.2,9.5,4.6H16a66.6,66.6,0,0,0,9.7-3.1c.1-.1.2-.2.2-.3s1.3-3.8.6-5.7v-.2a14.4,14.4,0,0,0,0-2.1.5.5,0,0,1,.3-.5c1.1-.4,1.2-2.5-.2-3.1l-5.4-2.3a.8.8,0,0,1-.2-.4c-.3-.7-.2-1.1-.6-2.5a.4.4,0,0,1,.2-.5c.6-.3,1.9-1,2-2.3S22.5,5.5,21,5.3a.8.8,0,0,1-.4-.4C20.4,4,19.5,1.1,14.8.8S8.1,3.7,7.7,4.5l-.2.2C6.9,5,4.8,6.1,5.1,8.5a3.4,3.4,0,0,0,2.4,3,.3.3,0,0,1,.3.3A12.8,12.8,0,0,1,8,14.9c0,.2-.1.3-.3.4a3.2,3.2,0,0,0-2,2.3c-.2,1.4.1,1.9.4,2.1S6.3,19.9,6.2,20.1Z"/><path d="M14.3,22.8a2.3,2.3,0,0,1,.5-3.3.2.2,0,0,0,0-.3L8.5,15.9h0c-1.6-.7-3.1,2.4-2.2,3.3s5.9,3,7.8,3.9C14.2,23.1,14.4,22.9,14.3,22.8Z" fill="#eadec4"/><path d="M16,23.5c-2.1-.1-2.5-3.6-.4-3.8a1.6,1.6,0,0,1,1.5,1.5c.1,1.3.2,7.8.2,9.1l-.2.3h-.6a.3.3,0,0,1-.3-.3Z" fill="#eadec4"/><path d="M17.4,20.8a31.3,31.3,0,0,1,.3,5.1,39.9,39.9,0,0,1,8.4-2.6c.6-.1-.3-1.4-.3-1.4s-2.1-3.2-3.8-2.7Z" fill="#eadec4"/><path d="M24.6,19.9,25.8,21c0,.1.1.1.1,0l-.2-2.2a.8.8,0,0,0,1,.2c.7-.3.7-2.4-.7-2.1s-1.4,1.3-1.4,2.9Z" fill="#eadec4"/><path d="M21.4,18.7c0,.1,0,.1.1.1a2.6,2.6,0,0,1,1.8-.1l.6.5c.1.1.2,0,.1-.1s-.2-2.1.9-2.6.1-.1,0-.1l-3.7-1.7a.1.1,0,0,0-.1.1Z" fill="#eadec4"/><path d="M8.9,15.6l7.5,3.5h0a3.1,3.1,0,0,1,.8,1h.3L20.6,19c.1,0,.1-.1.1-.2a47.9,47.9,0,0,0-1-7.7.2.2,0,0,0-.2-.2,3.8,3.8,0,0,1-2.1-.6h-.2a2.5,2.5,0,0,1-2.5-.2h-.3c-.3.3-1.3.9-2.7-.2h-.3a3.3,3.3,0,0,1-2.6,1.6.2.2,0,0,0-.2.2,17.8,17.8,0,0,1,.2,3.6C8.8,15.5,8.8,15.6,8.9,15.6Z" fill="#fff"/><path d="M11.2,9.3v.2c-1.3,1.9-3.9,2.2-5.2.1s.8-5.3,3.4-4c.1,0,.2-.1.1-.2a2.1,2.1,0,0,0-1.1-.7s-.1-.1,0-.1a6.4,6.4,0,0,1,6.4-3.4c2.7.2,4.6,1.4,5.2,3.8h-.1a2,2,0,0,0-1.7.4c-.1.1,0,.2.1.2s3.5-.5,3.8,2.1-3.7,3.1-5.5,1.3c-.1-.1-.2,0-.2.1l.3.7c.1,0,0,.1-.1.1a5,5,0,0,1-2.7-1.1h-.1a1.9,1.9,0,0,0,.2.7c.1,0,0,.1-.1.1A4.2,4.2,0,0,1,11,8.5h-.2A2.5,2.5,0,0,0,11.2,9.3Z" fill="#fff"/><path d="M26.2,23.8a.2.2,0,0,0-.2-.2,55.2,55.2,0,0,0-8.1,2.8.2.2,0,0,0-.2.2v1.5c0,.8-.1,1.6-.1,2s.1.2.3.2l7.6-2.6h.1A13.8,13.8,0,0,0,26.2,23.8Z" fill="#eadec4"/><path d="M8.4,12.4s3-.2,3.1-1.6,2.2,1.2,3.2-.1,1.4,1.2,2.6.2a3.2,3.2,0,0,0,2.7.8l-.3-.9-2.4-.7-.6.2L14.5,10H13.4l-2-.4-1.1,1-1.8.6Z" opacity="0.3"/><path d="M6,17.8a1.8,1.8,0,0,0,.8,1.4c.8.5,7.7,3.7,7.7,3.7v.3h-.4L6.4,19.7,5.9,19Z" opacity="0.3"/><path d="M15.3,25.7,6.8,21.6a20.1,20.1,0,0,0,.1,4.9c.1.3,6.8,3.5,8.4,4.3l.3-.2C15.5,29.7,15.3,27.4,15.3,25.7Z" fill="#eadec4"/><path d="M15.3,24.2c.1-.1,0-.2-.1-.2l-8-3.7a.2.2,0,0,0-.3.1,4.1,4.1,0,0,0-.1,1.2l8.5,4.1Z" fill="#eadec4"/><path d="M15.3,24.2c.1-.1,0-.2-.1-.2l-8-3.7a.2.2,0,0,0-.3.1,4.1,4.1,0,0,0-.1,1.2l8.5,4.1Z" opacity="0.3"/><path d="M13,14.1c0,1,0,2.7-.1,3.7l.7.4a26.8,26.8,0,0,0-.5-4.1Z" opacity="0.3"/><path d="M19.4,19.7s-.3-3-.6-4.6h-.1a36.2,36.2,0,0,1,.2,4.8Z" opacity="0.3"/><path d="M16.9,19.9c0-.7-.2-5.1-.4-7h-.1c0,1.8-.1,6.1-.2,6.8h0l.7.2Z" opacity="0.3"/><path d="M7,10.6a3.7,3.7,0,0,0,4.2-1.3v.4l-1.2,1.2-1.6.4L7.2,11Z" opacity="0.3"/><path d="M11,8.5a5.4,5.4,0,0,0,3.1,1l.2.4-.9.2-2.1-1Z" opacity="0.3"/><path d="M13.9,8.9a5.9,5.9,0,0,0,2.9.8l-.2-.6s3.3,1.9,5.6.1l-.6.6-1.7.7-2.6-.4-.7.2-2.3-.6Z" opacity="0.3"/><polygon points="20.9 14.2 25.7 16.4 24.7 17.3 24.3 19.7 23 18.8 21.1 19.1 20.9 14.2" opacity="0.3"/><path d="M17.6,20.4a18.8,18.8,0,0,1,.3,5.7s2.6-1.6,8.4-2.8a5.4,5.4,0,0,1,.2,1.1s-6.6,1.5-8.9,2.8l-.3-4.1-.2-2.7Z" opacity="0.3"/></svg>