<svg id="Layer_1" data-name="Layer 1" xmlns="http://www.w3.org/2000/svg" viewBox="0 0 439.5 484.1"><title>logo_1</title><path d="M73.1,297.1c-1.4,15.6-5.7,69.7-.2,95.7a5.9,5.9,0,0,0,2.9,4c15.5,9.4,105.5,62.9,140.7,69.5a6.2,6.2,0,0,0,2.7-.1c11.9-3,101.1-26.1,144.3-47.4a6.5,6.5,0,0,0,3.3-3.6c3.8-11,18.5-56.7,8.8-85.6a7.2,7.2,0,0,1-.3-2.5c.3-4.6,1.3-20.3,0-31.8a6.5,6.5,0,0,1,4.3-6.9c16.3-5.7,18.3-37.4-3.5-46.3l-79.9-34.8c-2.2-1-3-3.2-3.8-5.6-3.4-10.9-2.2-16-9-36.5a6.5,6.5,0,0,1,3.4-7.8c9.6-4.4,29-15.5,30.7-34.4,2.1-16-1.8-43.7-24.7-47a6.4,6.4,0,0,1-5.4-5.1C284.7,56.5,270.8,14.3,200.7,9c-75-5.7-100.5,44.2-105.3,55.6a6.8,6.8,0,0,1-3.2,3.3c-9,4.1-40.6,21.4-35.9,57,4.3,32.2,26,41.3,35.3,43.7a6.3,6.3,0,0,1,4.7,5.6c1.2,12.7,4.3,22,2.8,45.7a6.4,6.4,0,0,1-4.2,5.6c-7.9,2.9-25.5,11.8-29.8,34.8-3.8,20.8,1.7,28.4,5.5,31.1A6.3,6.3,0,0,1,73.1,297.1Z"/><path d="M193.2,337.6c-9-12.5-13.3-31.8,8.1-49.5a2.6,2.6,0,0,0-.4-4.3l-94.1-48.7h-.2c-24.3-10.8-45.9,35.5-32.2,49.6C85.5,296,161.3,329.2,190,341.5A2.6,2.6,0,0,0,193.2,337.6Z" fill="#eadec4"/><path d="M218.9,348.3c-31.6-2.1-37.8-53.8-5.9-56.8,0,0,19.4.6,21.2,21.8,1.7,19.1,3.1,116.9,3.4,136.1a3.8,3.8,0,0,1-3.2,3.8l-8.8,1.6a3.7,3.7,0,0,1-4.3-3.5Z" fill="#eadec4"/><path d="M239.5,308.2s4.5,23.2,3.8,75.7c0,0,71.8-32,126.4-39.4,8.7-1.7-5.3-20.6-5.3-20.6s-30.6-47.6-56.3-40.2S239.5,308.2,239.5,308.2Z" fill="#eadec4"/><path d="M347.2,294.3c2.8,2.5,13,11.9,17.2,17,.3.5,1.1.2,1.1-.4l-1.7-32.7s4.7,7.1,14.4,2.9,10.7-36.6-11-32-21.2,20.1-20.8,43.4A2.5,2.5,0,0,0,347.2,294.3Z" fill="#eadec4"/><path d="M298.6,277.1a1.1,1.1,0,0,0,1.4,1c4.3-1.7,17.8-6.2,27-1a42.2,42.2,0,0,1,9.6,6.8,1.1,1.1,0,0,0,1.9-.9c-1.6-9.6-3.2-31.4,12.8-38.8a1.1,1.1,0,0,0,0-2l-55.1-25a1,1,0,0,0-1.5,1Z" fill="#eadec4"/><path d="M112.8,230.1l111,52.7.5.3c1.4,1,9.3,6.8,12.4,13.6a3.4,3.4,0,0,0,4.1,1.7l46-16.8a3.2,3.2,0,0,0,2.2-3.3c-1-16.9-7.4-89.4-15.6-115.3a3.3,3.3,0,0,0-3-2.3c-5.9-.2-22-1.6-31.3-8.9a3.3,3.3,0,0,0-3.4-.5c-5.2,2.3-20.6,7.6-36.4-2.7a3.3,3.3,0,0,0-4,.2c-5,4.2-19.7,13.3-40.5-3a3.4,3.4,0,0,0-4.9.9,51.6,51.6,0,0,1-39.4,24,2.3,2.3,0,0,0-2.1,2.5c.8,11.2,4.3,33,2.5,53.6A3.2,3.2,0,0,0,112.8,230.1Z" fill="#fff"/><path d="M146.4,136.9a1.5,1.5,0,0,1,.1,1.7c-19,29.7-57.5,33-76.5,2.7s10.6-80,49.9-60.9a1.4,1.4,0,0,0,1.6-2.2c-3.7-3.9-9.3-8.5-16.1-10.6a1.3,1.3,0,0,1-.8-1.9c18-35.7,55.7-53.2,96-50.4s68.7,20.4,76.9,56.4a1.3,1.3,0,0,1-1.5,1.6c-4.6-.7-15.9-1.5-24.4,6.5a1.4,1.4,0,0,0,1.2,2.4c12.9-2.5,51.5-6.8,56.1,31.9,5.2,44.5-54.9,46.1-81.7,19.2a1.4,1.4,0,0,0-2.3,1.4,33.5,33.5,0,0,0,4.2,9.9,1.3,1.3,0,0,1-1.2,2.1c-8.3-.8-29.5-3.9-40.1-15.7a1.4,1.4,0,0,0-2.4,1.1c.6,3.2,1.6,7.1,3.5,9.7a1.4,1.4,0,0,1-1.2,2.2c-8.4-.4-29.5-3-43.9-19.3a1.4,1.4,0,0,0-2.4,1.2C142.1,129.3,143.5,133.8,146.4,136.9Z" fill="#fff"/><path d="M370.8,352.5a2.7,2.7,0,0,0-3.2-2.4c-55.8,12.9-110.3,36.3-121.3,41.1a3.2,3.2,0,0,0-1.9,3l.4,22.8c0,12-.3,24.1-.4,29.9a2.7,2.7,0,0,0,3.4,2.6c44.5-12.8,104-35.2,113.2-38.7a2.7,2.7,0,0,0,1.6-1.7C364.4,402.8,372.1,374.9,370.8,352.5Z" fill="#eadec4"/><path d="M104.8,182.2s44.7-2.6,47.3-23.4c0,0,32.8,17.6,46.6-2.3,0,0,21.3,18.2,38.6,3.5,0,0,19.4,17.9,41.3,11.8l-5.2-13-35.8-11.3-8.1,3.5-33.8-4.7-15.6,1.5-29.7-6-17,15.6-26.6,9.2Z" opacity="0.3"/><path d="M70.1,263.1a26.5,26.5,0,0,0,11.8,20.8C93.8,292,196,338.3,196,338.3v4.9l-6.4,1.4-114-53.1-8-11Z" opacity="0.3"/><path d="M207.8,380.6l-127-60.9c-1.7,21.1-2.9,52.5,2.2,72.5,1.4,5.2,101.5,52.9,125.1,64.1a3.1,3.1,0,0,0,4.4-3.1C211.2,440.2,208.1,406.6,207.8,380.6Z" fill="#eadec4"/><path d="M208.7,358a3.2,3.2,0,0,0-1.8-3.3c-14.1-6.1-93.2-40.5-119.9-54.6a3.1,3.1,0,0,0-4.5,2.3c-.4,3.9-1.1,10-1.7,17.3l127,60.9A184.9,184.9,0,0,1,208.7,358Z" fill="#eadec4"/><path d="M208.7,358a3.2,3.2,0,0,0-1.8-3.3c-14.1-6.1-93.2-40.5-119.9-54.6a3.1,3.1,0,0,0-4.5,2.3c-.4,3.9-1.1,10-1.7,17.3l127,60.9A184.9,184.9,0,0,1,208.7,358Z" opacity="0.3"/><path d="M173.1,208.2c.6,14.5,1.3,39.4-.5,54.9l10.8,5.3s-2-34.5-7.9-60.5A1.2,1.2,0,0,0,173.1,208.2Z" opacity="0.3"/><path d="M269.3,291.2s-5.1-44.2-9.5-69.1c0-.3-.5-.3-.5.1,1.1,13.9,3.9,54.3,2.2,72.8Z" opacity="0.3"/><path d="M232.5,293.7c-.5-9.7-3.5-75.7-6.1-104.4a.9.9,0,0,0-1.7,0c-.2,27.5-1.1,92.1-3.1,101.4a.8.8,0,0,0,.6,1l9.2,2.8A.8.8,0,0,0,232.5,293.7Z" opacity="0.3"/><path d="M84.7,156.4s34.6,13.7,61.7-19.5l2,4.9-18.1,18.9-23.5,5.9L87.3,162Z" opacity="0.3"/><path d="M143.8,124.7s25.3,17.7,47,13.9l2.4,6.5-13.1,2.7-31.7-14Z" opacity="0.3"/><path d="M187.8,131s25.6,13.9,43.3,10.8l-3.9-8.5s49.1,28.2,83.5,1l-9,9.3-24.8,11.2-39.3-7.3L227,151.8l-33.8-10Z" opacity="0.3"/><polygon points="291.2 210.1 363 241.5 348.1 255 341.5 291.5 323.3 277.3 294.7 282.9 291.2 210.1" opacity="0.3"/><path d="M242.1,301.7s8.1,24,5.2,84.6c0,0,37.9-23.2,125.2-40.7,0,0,2.4,9.6,1.8,15.6,0,0-97.1,22.3-132.2,42l-4.5-61.5-2.2-40Z" opacity="0.3"/><path d="M71.5,426.1a10.3,10.3,0,0,1-9.2-3,13.6,13.6,0,0,1-3.7-7.1l-9.2-57c-1.4-8.4,9.3-10.2,14.4-11s15.9-2.6,17.2,5.9l6.3,38.3,7.5-1.2c2.8-.5,7.7,0,10.4,8.4h0a38.5,38.5,0,0,1,1.7,10.5h0v.2c0,3.7-.9,10.2-7.2,11.2Z"/><path d="M65.2,414.9,55.9,358c-.2-1.3,2.8-2.5,9-3.5s9.4-.8,9.6.4l7.3,44.9,14.1-2.3q1.6-.3,3,3.9c.4,1.4.7,2.8,1,4.3s.3,3,.4,4.5c0,3-.6,4.6-1.7,4.8l-28.2,4.6a3.9,3.9,0,0,1-3.4-1.1A6.2,6.2,0,0,1,65.2,414.9Z" fill="#fff"/><path d="M143.7,415.3a18.3,18.3,0,0,1-11-1.2,26,26,0,0,1-12.2,5,21.7,21.7,0,0,1-17-4.2,22.3,22.3,0,0,1-9-14.7c-.7-4.3-.9-12.6,5.4-18.6a21,21,0,0,1-3.5-8c-1-5.9,1.8-9,3.5-10.3h.2l.2-.2c4-2.6,9.4-4.4,16.5-5.6s14.3-.1,18.8,3.6,7,8.9,8.1,16.1l1.4,8.6a9.8,9.8,0,0,1,5.7,4,18,18,0,0,1,2.8,7.6,21.4,21.4,0,0,1-.8,9.7C151.3,411.6,148,414.6,143.7,415.3Z"/><path d="M106.7,379.6c-2.2-2.8-3.5-5.1-3.8-7.1s0-3.2,1-3.9c3.2-2.1,7.9-3.6,13.9-4.6s10.6-.3,13.6,2.1,4.9,6.5,5.8,12l2.3,14.5,3.2-.5a2.7,2.7,0,0,1,2.7,1.4,12.7,12.7,0,0,1,1.7,4.9,15.1,15.1,0,0,1-.6,6.6c-.7,2.2-2,3.5-3.9,3.8a11.5,11.5,0,0,1-8.3-1.4,6.4,6.4,0,0,1-2.6-2.3c-2.2,4-6.3,6.5-12.2,7.5a15.1,15.1,0,0,1-12-3,15.8,15.8,0,0,1-6.5-10.5c-1.6-9.9,3.6-15.9,15.5-17.8l5-.8v-.9c-.3-1.6-.7-2.6-1.3-3s-1.9-.4-3.7-.1A47,47,0,0,0,106.7,379.6Zm10.1,15.6a3.8,3.8,0,0,0,1.6,2.9,3.6,3.6,0,0,0,2.9.6,4.5,4.5,0,0,0,2.9-1.8l-1.2-7.1-2.5.4C117.5,390.7,116.3,392.4,116.8,395.2Z" fill="#fff"/><path d="M158.1,412c-5.7,1-9.2-4.6-10.7-7-2.8-4.6-3.5-6.2-3.7-7.7a7.8,7.8,0,0,1,.9-5.8l6.3-10.3-1.3.3h-.1c-4.8.8-7.8-2.4-8.9-9.3s-2.8-17.2,5.5-18.6l29.2-4.7c4.5-.8,7.3,2.8,9.8,6s3.9,5.3,4.2,7.2a7.5,7.5,0,0,1-.8,5l-6.7,12,1.3-.3h.2c8-1.3,9.6,8.5,10.2,11.7a43.6,43.6,0,0,1,.5,6.7c.1,2.7-.5,9.1-6.6,10.1Z"/><path d="M148.4,375c-.4,0-.8-1.2-1.3-3.9-1.1-7.1-1.1-10.8,0-11l29.3-4.7c.4-.1,1.5,1.1,3.4,3.6a33.8,33.8,0,0,1,3,4.1v.7L168.7,389l15.7-3.7c1-.2,1.8,1.9,2.5,6.3a43.2,43.2,0,0,1,.5,5.7c0,2.2-.3,3.3-1,3.5l-29.3,4.7c-1,.2-2.3-1.2-4.1-4s-2.7-4.6-2.8-5.2-.1-1.1,0-1.2l14.2-23.3Z" fill="#fff"/><path d="M216.5,419.7l-9.6,1.2c-3.7.3-7.2.6-9.7-2.3l-2.2-2.5.7-3.4,4.3-18-21.7-37.9-.2-1.2c-.9-5.9,4.9-8,6.7-8.5a53.1,53.1,0,0,1,7-1.5c7.1-1.1,13.3-2.1,15.8,3.2l.3.5.2-1.3v-.6c1.5-4.7,6.5-5.5,10.9-6.2,11.4-1.9,14.9-1.9,17.7,1.2a6.4,6.4,0,0,1,1.6,5.9l-11.5,64.3C226.4,418.1,220.5,419,216.5,419.7Z"/><path d="M184.7,354.5c-.1-.6,2.6-1.4,8.2-2.3s8.5-1.1,8.8-.5l10.1,20.5,2.8-22.8c.1-.5,2-1.1,5.5-1.7,8.1-1.3,12.1-1.5,11.8-.7l-11.5,64.8c0,.4-1.7.8-4.9,1.3a86.3,86.3,0,0,1-9.2,1.2c-2.8.2-4.2.2-4.1-.1l4.8-20.6Z" fill="#fff"/><path d="M271.9,394.5q-15,2.4-26.4-6.6C238,382,233.3,373,231.3,361s-.2-22.2,5.1-30.4a32.4,32.4,0,0,1,23-15,38.7,38.7,0,0,1,14.4,0c8.6,1.7,10.7,6.8,11.2,9.7s.1,6.9-1.4,11.4c-.9,2.7-2.9,8.9-8.5,9.8a7.8,7.8,0,0,1-4.9-.8h-1a5.8,5.8,0,0,0-2,0,4.6,4.6,0,0,0-3.4,2c-.5.9-1.2,2.9-.5,7.5s1.6,5.9,2.9,6.9a4.4,4.4,0,0,0,3.8,1,16.5,16.5,0,0,0,3.2-1l.9-.4a7.5,7.5,0,0,1,4.7-2.6c3.9-.6,6.6,2.1,8.1,3.6a27.2,27.2,0,0,1,4.7,6.3,23.5,23.5,0,0,1,3,7.2c.5,3,.1,8.8-7.8,13.4A42.2,42.2,0,0,1,271.9,394.5Z"/><path d="M272.6,322.1c3.5.7,5.5,2.1,5.9,4.2a19.2,19.2,0,0,1-1.2,8.3q-1.7,5.1-3.3,5.4a1.7,1.7,0,0,1-1.1-.3,8.5,8.5,0,0,0-2.9-.7,23.9,23.9,0,0,0-3.8,0,11,11,0,0,0-8,5.2c-1.8,2.8-2.2,6.8-1.4,12s2.6,8.8,5.2,10.9a10.8,10.8,0,0,0,9.1,2.4,25.1,25.1,0,0,0,4.6-1.3,9.2,9.2,0,0,0,3.5-2.3c.1-.2.3-.3.7-.3s1.1.5,2.4,1.7a23,23,0,0,1,3.6,4.9,16.7,16.7,0,0,1,2.1,5q.6,3.6-4.5,6.6a37.2,37.2,0,0,1-12.7,4.2,26.1,26.1,0,0,1-21.2-5.3q-9.2-7.2-11.7-22.8c-1.7-10.3-.4-18.9,4-25.7a26.2,26.2,0,0,1,18.6-12.1A35,35,0,0,1,272.6,322.1Z" fill="#fff"/><path d="M304.5,388.5c-5,.8-14.2,2.3-15.5-5.5l-10.1-62.8c-.4-2.4,0-6.8,7.5-8.8l5.3-1.2a35.3,35.3,0,0,1,7.3-.6c6.9.4,8.1,5.5,8.3,6.5l1.6,10.3,1.3-.3c6.3-1,11.8,0,16.3,2.9s7.7,8.9,9.1,17.6l4.6,28.4c.3,1.5.5,6.4-6.4,8.3a35.1,35.1,0,0,1-6,1.3h-.3l-6.6.7a11.2,11.2,0,0,1-5.2-.8,10.3,10.3,0,0,1-4.8,2.7Zm3-36.5"/><path d="M310.9,379.9c.1.5-2.4,1.2-7.5,2s-7.7.9-7.8,0l-10.2-62.7c-.1-.4.8-.9,2.7-1.4a40.4,40.4,0,0,1,4.7-1c5.1-.9,7.8-.7,7.9.4l3,18.3a31.6,31.6,0,0,1,7.6-2.9c4.6-.7,8.5-.1,11.5,2s5.2,6.4,6.3,13.1l4.6,28.4c.1.5-2.2,1.2-7,2s-8.1.8-8.2.4l-4.4-27c-.5-3-1.7-4.3-3.6-4s-2.8,1.1-4.4,2.7Z" fill="#fff"/><path d="M362.6,379.8a27.9,27.9,0,0,1-21.2-4.9q-9.4-6.7-11.7-20.4c-1.4-8.9-.1-16.7,4.1-23.2a26,26,0,0,1,18.6-12.1c7.8-1.3,14.4-.1,19.6,3.4a21.9,21.9,0,0,1,9.7,15c1,6.2,0,11.5-2.8,15.7h0c2.6,3.3,4.1,6.3,4.6,9.3,1,5.8-2,8.9-3.6,10.1C375.5,376.2,369.7,378.6,362.6,379.8Z"/><path d="M375.8,367.5c-3.5,2.8-8.2,4.8-14.3,5.7a21.3,21.3,0,0,1-16.3-3.6q-7.2-5.2-9-16.2c-1.1-7.2-.1-13.4,3.2-18.6a19.5,19.5,0,0,1,14-9.1c6.1-1,11.1-.2,14.9,2.4a14.8,14.8,0,0,1,6.9,10.5c1.6,9.9-3.3,15.8-14.6,17.6l-6.4,1c.3,1.9,1,3.1,2.2,3.6a8.3,8.3,0,0,0,4.6.3,27.4,27.4,0,0,0,11.7-4.9c0-.1.4.3,1,1.2,1.9,2.4,3,4.4,3.3,6.2S376.9,366.7,375.8,367.5Zm-15.7-24.6c-.4-2.6-1.9-3.7-4.4-3.3a4.2,4.2,0,0,0-2.8,1.6,3.5,3.5,0,0,0-.7,3.2l.4,2.9,5-.8C359.6,346.1,360.4,344.9,360.1,342.9Z" fill="#fff"/><path d="M398.8,373c-5.8.9-14.6,2.3-15.8-5.3l-4.3-26.2c-6.1-.6-7.4-8.6-7.9-11.4s-1.8-11.1,4.1-13.4c-.4-6.4.8-11.3,3.7-14.9s8.4-7,14.9-8a36.4,36.4,0,0,1,16.2.7c1.7.5,5,2,5.8,7.2.4,2,.1,4.6-.7,8.2a18.7,18.7,0,0,1-2.7,6.8,19.3,19.3,0,0,1,1.8,6.1c1.7,10.5-2.7,13.5-5.9,14.2l4.2,25.9C413.5,370.6,404.7,372,398.8,373Z"/><path d="M384.2,334.1l-4.5.8c-.9.1-1.7-1.8-2.3-5.9s-.6-6.2.4-6.3l4.4-.7-.3-2.1c-1-6.4-.4-11.1,1.9-14s5.9-4.8,10.8-5.6a29.3,29.3,0,0,1,13.3.6c.6.1.9.7,1.1,1.8a14.8,14.8,0,0,1-.7,5.7c-.6,2.7-1.3,4.3-1.9,4.8a11.4,11.4,0,0,0-6.7-.9c-2.4.4-3.4,2.1-2.8,5.3l.3,1.9,7.6-1.2c1.1-.2,1.9,1.7,2.6,5.6s.3,6.5-1.1,6.7l-5.9,1,5.3,32.4c.1.7-2.5,1.5-7.9,2.4s-8.2,1-8.3.2Z" fill="#fff"/><polygon points="158.1 412 212.5 403.2 212.5 379 191.9 363.5 134 374.8 150.4 405.5 158.1 412"/><polyline points="266.5 333.5 268.9 334.4 293.4 343.4 335.6 346.6 355.7 339.6 387.1 352 383 367.7 273 373.2 254.8 367.1 254.8 340.1"/><path d="M65.2,414.9,55.9,358c-.2-1.3,2.8-2.5,9-3.5s9.4-.8,9.6.4l7.3,44.9,14.1-2.3q1.6-.3,3,3.9c.4,1.4.7,2.8,1,4.3s.3,3,.4,4.5c0,3-.6,4.6-1.7,4.8l-28.2,4.6a3.9,3.9,0,0,1-3.4-1.1A6.2,6.2,0,0,1,65.2,414.9Z" fill="#fff"/><path d="M106.7,379.6c-2.2-2.8-3.5-5.1-3.8-7.1s0-3.2,1-3.9c3.2-2.1,7.9-3.6,13.9-4.6s10.6-.3,13.6,2.1,4.9,6.5,5.8,12l2.3,14.5,3.2-.5a2.7,2.7,0,0,1,2.7,1.4,12.7,12.7,0,0,1,1.7,4.9,15.1,15.1,0,0,1-.6,6.6c-.7,2.2-2,3.5-3.9,3.8a11.5,11.5,0,0,1-8.3-1.4,6.4,6.4,0,0,1-2.6-2.3c-2.2,4-6.3,6.5-12.2,7.5a15.1,15.1,0,0,1-12-3,15.8,15.8,0,0,1-6.5-10.5c-1.6-9.9,3.6-15.9,15.5-17.8l5-.8v-.9c-.3-1.6-.7-2.6-1.3-3s-1.9-.4-3.7-.1A47,47,0,0,0,106.7,379.6Zm10.1,15.6a3.8,3.8,0,0,0,1.6,2.9,3.6,3.6,0,0,0,2.9.6,4.5,4.5,0,0,0,2.9-1.8l-1.2-7.1-2.5.4C117.5,390.7,116.3,392.4,116.8,395.2Z" fill="#fff"/><path d="M148.4,375c-.4,0-.8-1.2-1.3-3.9-1.1-7.1-1.1-10.8,0-11l29.3-4.7c.4-.1,1.5,1.1,3.4,3.6a33.8,33.8,0,0,1,3,4.1v.7L168.7,389l15.7-3.7c1-.2,1.8,1.9,2.5,6.3a43.2,43.2,0,0,1,.5,5.7c0,2.2-.3,3.3-1,3.5l-29.3,4.7c-1,.2-2.3-1.2-4.1-4s-2.7-4.6-2.8-5.2-.1-1.1,0-1.2l14.2-23.3Z" fill="#fff"/><path d="M184.7,354.5c-.1-.6,2.6-1.4,8.2-2.3s8.5-1.1,8.8-.5l10.1,20.5,2.8-22.8c.1-.5,2-1.1,5.5-1.7,8.1-1.3,12.1-1.5,11.8-.7l-11.5,64.8c0,.4-1.7.8-4.9,1.3a86.3,86.3,0,0,1-9.2,1.2c-2.8.2-4.2.2-4.1-.1l4.8-20.6Z" fill="#fff"/><path d="M272.6,322.1c3.5.7,5.5,2.1,5.9,4.2a19.2,19.2,0,0,1-1.2,8.3q-1.7,5.1-3.3,5.4a1.7,1.7,0,0,1-1.1-.3,8.5,8.5,0,0,0-2.9-.7,23.9,23.9,0,0,0-3.8,0,11,11,0,0,0-8,5.2c-1.8,2.8-2.2,6.8-1.4,12s2.6,8.8,5.2,10.9a10.8,10.8,0,0,0,9.1,2.4,25.1,25.1,0,0,0,4.6-1.3,9.2,9.2,0,0,0,3.5-2.3c.1-.2.3-.3.7-.3s1.1.5,2.4,1.7a23,23,0,0,1,3.6,4.9,16.7,16.7,0,0,1,2.1,5q.6,3.6-4.5,6.6a37.2,37.2,0,0,1-12.7,4.2,26.1,26.1,0,0,1-21.2-5.3q-9.2-7.2-11.7-22.8c-1.7-10.3-.4-18.9,4-25.7a26.2,26.2,0,0,1,18.6-12.1A35,35,0,0,1,272.6,322.1Z" fill="#fff"/><path d="M310.9,379.9c.1.5-2.4,1.2-7.5,2s-7.7.9-7.8,0l-10.2-62.7c-.1-.4.8-.9,2.7-1.4a40.4,40.4,0,0,1,4.7-1c5.1-.9,7.8-.7,7.9.4l3,18.3a31.6,31.6,0,0,1,7.6-2.9c4.6-.7,8.5-.1,11.5,2s5.2,6.4,6.3,13.1l4.6,28.4c.1.5-2.2,1.2-7,2s-8.1.8-8.2.4l-4.4-27c-.5-3-1.7-4.3-3.6-4s-2.8,1.1-4.4,2.7Z" fill="#fff"/><path d="M375.8,367.5c-3.5,2.8-8.2,4.8-14.3,5.7a21.3,21.3,0,0,1-16.3-3.6q-7.2-5.2-9-16.2c-1.1-7.2-.1-13.4,3.2-18.6a19.5,19.5,0,0,1,14-9.1c6.1-1,11.1-.2,14.9,2.4a14.8,14.8,0,0,1,6.9,10.5c1.6,9.9-3.3,15.8-14.6,17.6l-6.4,1c.3,1.9,1,3.1,2.2,3.6a8.3,8.3,0,0,0,4.6.3,27.4,27.4,0,0,0,11.7-4.9c0-.1.4.3,1,1.2,1.9,2.4,3,4.4,3.3,6.2S376.9,366.7,375.8,367.5Zm-15.7-24.6c-.4-2.6-1.9-3.7-4.4-3.3a4.2,4.2,0,0,0-2.8,1.6,3.5,3.5,0,0,0-.7,3.2l.4,2.9,5-.8C359.6,346.1,360.4,344.9,360.1,342.9Z" fill="#fff"/><path d="M384.2,334.1l-4.5.8c-.9.1-1.7-1.8-2.3-5.9s-.6-6.2.4-6.3l4.4-.7-.3-2.1c-1-6.4-.4-11.1,1.9-14s5.9-4.8,10.8-5.6a29.3,29.3,0,0,1,13.3.6c.6.1.9.7,1.1,1.8a14.8,14.8,0,0,1-.7,5.7c-.6,2.7-1.3,4.3-1.9,4.8a11.4,11.4,0,0,0-6.7-.9c-2.4.4-3.4,2.1-2.8,5.3l.3,1.9,7.6-1.2c1.1-.2,1.9,1.7,2.6,5.6s.3,6.5-1.1,6.7l-5.9,1,5.3,32.4c.1.7-2.5,1.5-7.9,2.4s-8.2,1-8.3.2Z" fill="#fff"/><polygon points="59.5 405.5 230.6 377.3 232.7 367.1 238.6 375.7 409.1 349.4 409.1 367.1 389.3 371 383.5 362.6 379.2 369 363 376.1 351 377.1 337.8 369.2 334.5 380.2 318.5 381.3 309.5 382.5 294.7 385.4 289 383 286.6 386.8 269.3 392.3 259.3 391.7 244.4 378.8 237.2 376.1 233.7 370.6 231 382.1 222.5 414.4 200.5 418.2 198.1 414.4 200.3 398.6 171.3 406.6 152.8 407 144.8 412 134 410.7 124 415.4 104 412.2 100.8 418.2 67.6 422.3 62.3 418 59.5 405.5" opacity="0.1"/></svg>