<svg id="Layer_1" data-name="Layer 1" xmlns="http://www.w3.org/2000/svg" viewBox="0 0 64 64"><title>logo-32</title><path d="M12.5,40.3c-.2,2-.7,8.9,0,12.3a.5.5,0,0,0,.3.5c2,1.2,13.6,8.1,18.1,8.9h.4c1.5-.4,12.9-3.3,18.5-6.1a.8.8,0,0,0,.4-.4c.5-1.5,2.4-7.3,1.2-11-.1-.1-.1-.2-.1-.4a17.3,17.3,0,0,0,0-4,.9.9,0,0,1,.6-.9c2.1-.8,2.3-4.8-.5-6L41.2,28.8a1.4,1.4,0,0,1-.5-.8c-.5-1.4-.3-2-1.2-4.7a1,1,0,0,1,.4-1c1.3-.5,3.8-1.9,4-4.4s-.2-5.6-3.2-6a1,1,0,0,1-.7-.7C39.7,9.4,37.9,4,28.9,3.3S16,9,15.4,10.4a.7.7,0,0,1-.5.4c-1.1.6-5.2,2.8-4.6,7.4s3.4,5.3,4.6,5.6a1.1,1.1,0,0,1,.6.7,29.9,29.9,0,0,1,.3,5.9.8.8,0,0,1-.5.7,5.8,5.8,0,0,0-3.8,4.5c-.5,2.6.2,3.6.7,4A.8.8,0,0,1,12.5,40.3Z"/><path d="M27.9,45.5c-1.1-1.6-1.7-4.1,1.1-6.4a.3.3,0,0,0-.1-.5L16.8,32.3h0c-3.1-1.4-5.9,4.6-4.1,6.4S23.8,44.4,27.5,46A.3.3,0,0,0,27.9,45.5Z" fill="#eadec4"/><path d="M31.2,46.9c-4-.3-4.8-6.9-.7-7.3a2.8,2.8,0,0,1,2.7,2.8c.2,2.4.4,15,.4,17.5a.4.4,0,0,1-.4.4l-1.1.3a.6.6,0,0,1-.6-.5Z" fill="#eadec4"/><path d="M33.9,41.7a52,52,0,0,1,.5,9.7s9.2-4.1,16.2-5c1.1-.2-.7-2.7-.7-2.7s-3.9-6.1-7.2-5.1S33.9,41.7,33.9,41.7Z" fill="#eadec4"/><path d="M47.7,39.9c.4.4,1.7,1.6,2.2,2.2a.1.1,0,0,0,.2,0l-.3-4.2a1.4,1.4,0,0,0,1.9.3c1.3-.5,1.4-4.7-1.4-4.1s-2.7,2.6-2.7,5.6C47.6,39.8,47.6,39.9,47.7,39.9Z" fill="#eadec4"/><path d="M41.5,37.7c0,.1.1.2.1.1a5.1,5.1,0,0,1,3.5-.1l1.3.9c0,.1.2,0,.2-.1s-.4-4,1.6-5a.2.2,0,0,0,0-.3l-7-3.2c-.1,0-.3.1-.2.2Z" fill="#eadec4"/><path d="M17.6,31.7l14.3,6.8h0a5.3,5.3,0,0,1,1.6,1.7.5.5,0,0,0,.5.3l5.9-2.2c.2-.1.3-.2.3-.4-.1-2.2-.9-11.5-2-14.8,0-.2-.2-.3-.4-.3s-2.8-.2-4-1.2a.3.3,0,0,0-.4,0,5,5,0,0,1-4.7-.4h-.5c-.6.6-2.5,1.7-5.2-.3a.4.4,0,0,0-.6.1,7.1,7.1,0,0,1-5.1,3.1.3.3,0,0,0-.3.3,34.3,34.3,0,0,1,.3,6.9A.5.5,0,0,0,17.6,31.7Z" fill="#fff"/><path d="M21.9,19.7c.1.1.1.2,0,.2-2.4,3.8-7.4,4.3-9.8.4s1.4-10.3,6.4-7.8c.2,0,.4-.2.2-.3a5.5,5.5,0,0,0-2.1-1.4c-.1,0-.1-.1-.1-.2A12.5,12.5,0,0,1,28.9,4.1c5.1.3,8.8,2.6,9.9,7.2,0,.2-.1.3-.2.2a3.7,3.7,0,0,0-3.2.9c-.1.1,0,.3.2.3s6.6-.9,7.2,4.1-7.1,5.9-10.5,2.5c-.1-.2-.4-.1-.3.1a6.9,6.9,0,0,0,.5,1.3.2.2,0,0,1-.1.3c-1.1-.1-3.8-.5-5.2-2.1-.1-.1-.3,0-.3.2a2.6,2.6,0,0,0,.5,1.2c.1.2,0,.3-.2.3a7.8,7.8,0,0,1-5.6-2.5c-.1-.1-.4,0-.3.2A2.8,2.8,0,0,0,21.9,19.7Z" fill="#fff"/><path d="M50.7,47.4c0-.2-.2-.3-.4-.3a111.3,111.3,0,0,0-15.6,5.3c-.1,0-.2.2-.2.4v6.7a.4.4,0,0,0,.4.4c5.7-1.7,13.4-4.6,14.6-5a.2.2,0,0,0,.2-.2A25.6,25.6,0,0,0,50.7,47.4Z" fill="#eadec4"/><path d="M16.6,25.5s5.7-.3,6-3c0,0,4.3,2.3,6-.3,0,0,2.8,2.4,5,.5,0,0,2.5,2.3,5.3,1.5l-.7-1.7-4.6-1.4-1,.4-4.4-.6-2,.2-3.8-.8-2.2,2-3.4,1.2Z" opacity="0.3"/><path d="M12.1,35.9a3.6,3.6,0,0,0,1.5,2.7c1.6,1,14.7,7,14.7,7v.6l-.8.2L12.8,39.6l-1-1.4Z" opacity="0.3"/><path d="M29.8,51,13.5,43.2c-.2,2.7-.4,6.7.3,9.3.1.7,13,6.8,16,8.2.3.2.6,0,.6-.4A89.9,89.9,0,0,1,29.8,51Z" fill="#eadec4"/><path d="M29.9,48.1a.5.5,0,0,0-.2-.4c-1.8-.8-12-5.2-15.4-7a.4.4,0,0,0-.6.3c-.1.5-.1,1.3-.2,2.2L29.8,51A25.3,25.3,0,0,1,29.9,48.1Z" fill="#eadec4"/><path d="M29.9,48.1a.5.5,0,0,0-.2-.4c-1.8-.8-12-5.2-15.4-7a.4.4,0,0,0-.6.3c-.1.5-.1,1.3-.2,2.2L29.8,51A25.3,25.3,0,0,1,29.9,48.1Z" opacity="0.3"/><path d="M25.3,28.9a54.5,54.5,0,0,1,0,7l1.4.7a70.2,70.2,0,0,0-1-7.8A.2.2,0,0,0,25.3,28.9Z" opacity="0.3"/><path d="M37.7,39.5s-.7-5.7-1.2-8.8h-.1a68.8,68.8,0,0,1,.3,9.3Z" opacity="0.3"/><path d="M33,39.8c-.1-1.2-.5-9.7-.8-13.4H32c-.1,3.6-.2,11.9-.4,13.1h0l1.2.4A.2.2,0,0,0,33,39.8Z" opacity="0.3"/><path d="M14,22.2a7,7,0,0,0,7.9-2.5l.3.6-2.4,2.5-3,.7-2.5-.6Z" opacity="0.3"/><path d="M21.6,18.1s3.2,2.3,6,1.8l.3.9-1.7.3-4-1.8Z" opacity="0.3"/><path d="M27.2,18.9s3.3,1.8,5.6,1.4l-.5-1s6.3,3.6,10.7.1l-1.1,1.2L38.7,22l-5.1-.9-1.3.5-4.4-1.3Z" opacity="0.3"/><polygon points="40.5 29.1 49.7 33.1 47.8 34.9 47 39.6 44.6 37.7 41 38.5 40.5 29.1" opacity="0.3"/><path d="M34.2,40.9s1,3.1.7,10.8c0,0,4.8-2.9,16.1-5.2a7.5,7.5,0,0,1,.2,2s-12.5,2.9-17,5.4L33.6,46l-.3-5.1Z" opacity="0.3"/></svg>