<svg xmlns="http://www.w3.org/2000/svg" width="360" height="360" viewBox="0 0 360 360"><path fill="#f1f1f1" d="M215.4 14a132.1 132.1 0 0 1 128.3 105c14.7 70.3-32 140.8-102.4 154.4-32.3 6.2-62.9 1.2-91.5-15.4-2.7-1.6-4-1-6 1-27.4 27.5-54.9 55.1-82.5 82.5-14.5 14.4-37.8 11.2-47.4-6.5-6.4-11.9-4.3-25.7 5.6-35.7l82.3-82.2c2.2-2.1 2.5-3.6.9-6.3-44.7-77.4-1-175.2 86.5-193.5 8.6-1.8 17.4-2.2 26.2-3.3zm93.3 131.4a93.1 93.1 0 1 0-93.4 93 92.8 92.8 0 0 0 93.4-93z"/><path fill="#f1f1f1" d="M220.3 82.9a34.9 34.9 0 0 1 7.1 1.5c23.4 9.4 39.4 25.9 47.5 49.8 1.8 5.3 1.5 10.7-2.4 15.3s-8 6-13.4 5-10-4.6-11.5-10.5a44.9 44.9 0 0 0-11.7-20.8 42.1 42.1 0 0 0-20.5-11.6c-7.5-1.7-12.4-8.7-11.4-15.6s7.6-13.4 16.3-13.1z"/></svg>