<?xml version="1.0" encoding="utf-8"?>
<!-- Generator: Adobe Illustrator 23.0.2, SVG Export Plug-In . SVG Version: 6.00 Build 0)  -->
<svg version="1.1" id="Layer_1" xmlns="http://www.w3.org/2000/svg" xmlns:xlink="http://www.w3.org/1999/xlink" x="0px" y="0px"
	 viewBox="0 0 2500 594" style="enable-background:new 0 0 2500 594;" xml:space="preserve">
<style type="text/css">
	.st0{fill:#FFFFFF;}
</style>
<path class="st0" d="M2195.7,200c13.9,0,25.4-7.2,26.9-16.6L2236.3,28c0-15.4-18-28-40.6-28c-22.6,0-40.6,12.6-40.6,28l13.7,155.4
	C2170.4,192.7,2181.8,200,2195.7,200L2195.7,200 M2111.7,248.5c7-12,6.5-25.6-0.9-31.6L1983,127.3c-13.3-7.7-33.2,1.6-44.5,21.2
	c-11.3,19.6-9.3,41.4,3.9,49.1l141.4,65.9C2092.7,266.8,2104.8,260.4,2111.7,248.5L2111.7,248.5 M2279.7,248.4
	c7,12,19,18.3,27.8,15.1l141.4-65.9c13.3-7.7,15.2-29.6,4-49.1c-11.4-19.6-31.3-28.9-44.6-21.2l-127.7,89.6
	C2273.4,222.9,2272.8,236.5,2279.7,248.4L2279.7,248.4 M2195.7,394.1c13.9,0,25.4,7.2,26.9,16.5l13.7,155.4c0,15.4-18,28-40.6,28
	c-22.6,0-40.6-12.6-40.6-28l13.7-155.4C2170.4,401.3,2181.8,394.1,2195.7,394.1L2195.7,394.1 M2279.7,345.5c7-12.1,19-18.3,27.8-15
	l141.4,65.8c13.3,7.7,15.2,29.6,4,49.2c-11.4,19.5-31.3,28.8-44.6,21.1l-127.7-89.5C2273.4,371.1,2272.8,357.5,2279.7,345.5
	L2279.7,345.5 M2111.7,345.5c7,12,6.5,25.6-0.9,31.6L1983,466.7c-13.3,7.7-33.2-1.6-44.5-21.1c-11.3-19.6-9.3-41.5,3.9-49.2
	l141.4-65.8C2092.7,327.2,2104.8,333.5,2111.7,345.5L2111.7,345.5"/>
<path class="st0" d="M1389.9,376.9c0,4.8-0.4,9.7-1.7,14c-5.4,17.9-24,33.1-47.2,33.1c-19.4,0-34.8-11-34.8-34.3
	c0-35.6,39.2-45.4,83.7-45.2L1389.9,376.9L1389.9,376.9z M1459.8,314.9c0-58.7-25.1-110.3-109.8-110.3c-43.5,0-78,12.2-96.8,23.1
	l13.8,47.2c17.2-10.9,44.7-19.9,70.6-19.9c43-0.1,50,24.3,50,40v3.7c-93.7-0.1-152.9,32.3-152.9,98.4c0,40.4,30.2,78.2,82.6,78.2
	c32.2,0,59.2-12.9,75.3-33.5h1.6c0,0,10.7,44.8,69.7,27.6c-3.1-18.6-4.1-38.5-4.1-62.4L1459.8,314.9 M0.5,124.7
	c0,0,61.2,250.8,71,291.5c11.4,47.5,31.9,65,91.2,53.2l38.2-155.5c9.7-38.6,16.2-66.2,22.4-105.5h1.1c4.4,39.7,10.6,66.9,18.6,105.6
	c0,0,15.5,70.6,23.5,107.7c8,37.1,30.2,60.4,88.2,47.7l91.1-344.7h-73.5l-31.1,149c-8.4,43.4-15.9,77.3-21.8,117h-1
	c-5.3-39.3-12.1-71.9-20.6-114.1l-32.4-151.9h-76.6l-34.6,148c-9.8,45-19,81.3-24.8,119.7h-1.1c-6-36.1-13.9-81.8-22.5-125.3
	c0,0-20.6-105.9-27.8-142.4L0.5,124.7 M584.8,376.9c0,4.8-0.4,9.7-1.7,14c-5.4,17.9-24,33.1-47.2,33.1c-19.4,0-34.7-11-34.7-34.3
	c0-35.6,39.2-45.4,83.7-45.2L584.8,376.9L584.8,376.9z M654.7,314.9c0-58.7-25.1-110.3-109.8-110.3c-43.5,0-78,12.2-96.9,23.1
	l13.8,47.2c17.2-10.9,44.7-19.9,70.6-19.9c43-0.1,50,24.3,50,40v3.7c-93.7-0.1-152.9,32.3-152.9,98.4c0,40.4,30.1,78.2,82.5,78.2
	c32.3,0,59.2-12.9,75.4-33.5h1.6c0,0,10.7,44.8,69.7,27.6c-3.1-18.6-4.1-38.5-4.1-62.4L654.7,314.9 M771.4,396.2V124.7h-70v344.7h70
	V396.2 M1687.2,124.7v254.3c0,35.1,6.6,59.6,20.7,74.6c12.4,13.1,32.7,21.6,57,21.6c20.7,0,41.1-4,50.7-7.5l-0.9-54.7
	c-7.1,1.7-15.4,3.2-26.6,3.2c-23.9,0-31.8-15.3-31.8-46.8v-97.3h61v-66h-61v-81.5H1687.2 M1506.5,210.4v259h72.2V336.8
	c0-7.2,0.4-13.4,1.6-19.1c5.3-27.8,26.6-45.5,57.1-45.5c8.4,0,14.3,0.9,20.8,1.8v-67.8c-5.4-1.1-9.1-1.6-15.9-1.6
	c-27,0-57.6,17.4-70.5,54.7h-2v-48.9L1506.5,210.4 M820.4,210.4v259h70.4V317.5c0-7.1,0.8-14.7,3.3-21.2
	c5.8-15.3,20.1-33.2,42.8-33.2c28.4,0,41.7,24,41.7,58.6v147.6h70.3V315.6c0-6.8,0.9-15,2.9-21c5.8-17.4,21.1-31.6,42.2-31.6
	c28.8,0,42.6,23.6,42.6,64.4v141.9h70.4V316.8c0-80.4-40.8-112.3-87-112.3c-20.4,0-36.5,5.1-51.1,14c-12.2,7.5-23.2,18.2-32.8,32.3
	h-1c-11.1-27.9-37.3-46.3-71.4-46.3c-43.8,0-63.5,22.2-75.4,41h-1v-35.2L820.4,210.4"/>
<path class="st0" d="M2484.5,456.8h1.1c1.4,0,2.3-0.6,2.3-1.4c0-1-0.8-1.5-2.2-1.5c-0.4,0-0.9,0.1-1.2,0.1L2484.5,456.8
	L2484.5,456.8L2484.5,456.8z M2484.3,463.7h-3.7v-12.2c0.8-0.2,2.8-0.5,5.4-0.5c2.8,0,4,0.4,4.9,1c0.8,0.5,1.3,1.4,1.3,2.7
	c0,1.3-1.2,2.3-2.8,2.8v0.2c1.4,0.4,2.1,1.4,2.5,3.1c0.4,1.8,0.6,2.5,0.8,2.9h-4.2c-0.4-0.5-0.6-1.5-0.8-2.6
	c-0.2-1.2-0.8-1.9-2.1-1.9h-1.2L2484.3,463.7L2484.3,463.7z M2485.8,447.6c-5.4,0-9.4,4.4-9.4,10c0,5.4,4.1,9.9,9.6,9.9
	c5.5,0.1,9.6-4.4,9.6-10C2495.6,452,2491.5,447.6,2485.8,447.6L2485.8,447.6L2485.8,447.6z M2486.1,444.3c7.5,0,13.5,5.9,13.5,13.2
	c0,7.4-6,13.3-13.6,13.3c-7.6,0-13.6-5.9-13.6-13.3c0-7.3,6.1-13.2,13.6-13.2L2486.1,444.3"/>
</svg>
